{
  "accessors": [
    {
      "bufferView": 2,
      "componentType": 5126,
      "count": 676,
      "max": [
        0.29004955291748047,
        0.5443248748779297,
        -0.195332333445549
      ],
      "min": [
        -0.2899599075317383,
        -0.5858325958251953,
        -0.27533233165740967
      ],
      "type": "VEC3"
    },
    {
      "bufferView": 2,
      "byteOffset": 8112,
      "componentType": 5126,
      "count": 676,
      "max": [
        1.0,
        1.0,
        1.0
      ],
      "min": [
        -1.0,
        -0.9993168115615845,
        -1.0
      ],
      "type": "VEC3"
    },
    {
      "bufferView": 1,
      "componentType": 5126,
      "count": 676,
      "max": [
        1.0,
        1.0
      ],
      "min": [
        0.0,
        0.0
      ],
      "type": "VEC2"
    },
    {
      "bufferView": 0,
      "componentType": 5125,
      "count": 1992,
      "type": "SCALAR"
    },
    {
      "bufferView": 2,
      "byteOffset": 16224,
      "componentType": 5126,
      "count": 28806,
      "max": [
        0.30104923248291016,
        0.7396297454833984,
        -9.928784493240528e-06
      ],
      "min": [
        -0.30104923248291016,
        -0.7811660766601563,
        -0.47065475583076477
      ],
      "type": "VEC3"
    },
    {
      "bufferView": 2,
      "byteOffset": 361896,
      "componentType": 5126,
      "count": 28806,
      "max": [
        1.0,
        0.9998323917388916,
        0.9999581575393677
      ],
      "min": [
        -1.0,
        -0.9998461008071899,
        -0.9999581575393677
      ],
      "type": "VEC3"
    },
    {
      "bufferView": 1,
      "byteOffset": 5408,
      "componentType": 5126,
      "count": 28806,
      "max": [
        0.99853515625,
        0.9297360777854919
      ],
      "min": [
        0.0,
        0.0
      ],
      "type": "VEC2"
    },
    {
      "bufferView": 0,
      "byteOffset": 7968,
      "componentType": 5125,
      "count": 149124,
      "type": "SCALAR"
    },
    {
      "bufferView": 2,
      "byteOffset": 707568,
      "componentType": 5126,
      "count": 11554,
      "max": [
        0.1668987274169922,
        0.5311832427978516,
        -0.41476136445999146
      ],
      "min": [
        -0.16715431213378906,
        0.09760856628417969,
        -0.7750036120414734
      ],
      "type": "VEC3"
    },
    {
      "bufferView": 2,
      "byteOffset": 846216,
      "componentType": 5126,
      "count": 11554,
      "max": [
        0.9999359846115112,
        1.0,
        0.9999957084655762
      ],
      "min": [
        -0.9998983144760132,
        -1.0,
        -0.9999998807907104
      ],
      "type": "VEC3"
    },
    {
      "bufferView": 1,
      "byteOffset": 235856,
      "componentType": 5126,
      "count": 11554,
      "max": [
        0.9765698313713074,
        0.99853515625
      ],
      "min": [
        0.0,
        0.0
      ],
      "type": "VEC2"
    },
    {
      "bufferView": 0,
      "byteOffset": 604464,
      "componentType": 5125,
      "count": 55716,
      "type": "SCALAR"
    },
    {
      "bufferView": 2,
      "byteOffset": 984864,
      "componentType": 5126,
      "count": 6240,
      "max": [
        0.17499256134033203,
        0.7811660766601563,
        -0.13519634306430817
      ],
      "min": [
        -0.17500686645507813,
        -0.6420516967773438,
        -0.6374942064285278
      ],
      "type": "VEC3"
    },
    {
      "bufferView": 2,
      "byteOffset": 1059744,
      "componentType": 5126,
      "count": 6240,
      "max": [
        0.9999998807907104,
        0.9962514638900757,
        0.9999963045120239
      ],
      "min": [
        -1.0,
        -0.9999991655349731,
        -0.9999526739120483
      ],
      "type": "VEC3"
    },
    {
      "bufferView": 1,
      "byteOffset": 328288,
      "componentType": 5126,
      "count": 6240,
      "max": [
        0.7341328263282776,
        0.6571862697601318
      ],
      "min": [
        0.26582249999046326,
        0.36945852637290955
      ],
      "type": "VEC2"
    },
    {
      "bufferView": 1,
      "byteOffset": 378208,
      "componentType": 5126,
      "count": 6240,
      "max": [
        0.8298511505126953,
        0.7708565592765808
      ],
      "min": [
        0.055481791496276855,
        0.17166553437709808
      ],
      "type": "VEC2"
    },
    {
      "bufferView": 0,
      "byteOffset": 827328,
      "componentType": 5125,
      "count": 26880,
      "type": "SCALAR"
    }
  ],
  "asset": {
    "extras": {
      "author": "Preppen (https://sketchfab.com/Preppen)",
      "license": "CC-BY-NC-4.0 (http://creativecommons.org/licenses/by-nc/4.0/)",
      "source": "https://sketchfab.com/3d-models/toy-car-9cf99655e7424770b79ba702fe83e5c1",
      "title": "Toy car"
    },
    "generator": "Sketchfab-15.27.0",
    "version": "2.0"
  },
  "bufferViews": [
    {
      "buffer": 0,
      "byteLength": 934848,
      "name": "floatBufferViews",
      "target": 34963
    },
    {
      "buffer": 0,
      "byteLength": 428128,
      "byteOffset": 934848,
      "byteStride": 8,
      "name": "floatBufferViews",
      "target": 34962
    },
    {
      "buffer": 0,
      "byteLength": 1134624,
      "byteOffset": 1362976,
      "byteStride": 12,
      "name": "floatBufferViews",
      "target": 34962
    }
  ],
  "buffers": [
    {
      "byteLength": 2497600,
      "uri": "scene.bin"
    }
  ],
  "extensionsUsed": [
    "KHR_materials_clearcoat"
  ],
  "images": [
    {
      "uri": "textures/Default_OBJ.003_baseColor.jpeg"
    },
    {
      "uri": "textures/Default_OBJ.003_clearcoat.png"
    }
  ],
  "materials": [
    {
      "doubleSided": true,
      "name": "Default_OBJ",
      "pbrMetallicRoughness": {
        "baseColorFactor": [
          0.8,
          0.8,
          0.8,
          1.0
        ],
        "metallicFactor": 0.977273,
        "roughnessFactor": 0.0227273
      }
    },
    {
      "doubleSided": true,
      "name": "Default_OBJ.001",
      "pbrMetallicRoughness": {
        "baseColorFactor": [
          0.00676016,
          0.00676016,
          0.00676016,
          1.0
        ],
        "metallicFactor": 0.0545455,
        "roughnessFactor": 0.218182
      }
    },
    {
      "doubleSided": true,
      "name": "Default_OBJ.002",
      "pbrMetallicRoughness": {
        "baseColorFactor": [
          0.913685,
          0.004334530000000001,
          0.00476374000000003,
          1.0
        ],
        "metallicFactor": 0.0,
        "roughnessFactor": 0.15
      }
    },
    {
      "doubleSided": true,
      "extensions": {
        "KHR_materials_clearcoat": {
          "clearcoatFactor": 1.0,
          "clearcoatRoughnessFactor": 0.13695007461417857,
          "clearcoatTexture": {
            "index": 1,
            "texCoord": 1
          }
        }
      },
      "name": "Default_OBJ.003",
      "pbrMetallicRoughness": {
        "baseColorTexture": {
          "index": 0
        },
        "metallicFactor": 0.0,
        "roughnessFactor": 0.5
      }
    }
  ],
  "meshes": [
    {
      "name": "Object_0",
      "primitives": [
        {
          "attributes": {
            "NORMAL": 1,
            "POSITION": 0,
            "TEXCOORD_0": 2
          },
          "indices": 3,
          "material": 0,
          "mode": 4
        }
      ]
    },
    {
      "name": "Object_1",
      "primitives": [
        {
          "attributes": {
            "NORMAL": 5,
            "POSITION": 4,
            "TEXCOORD_0": 6
          },
          "indices": 7,
          "material": 1,
          "mode": 4
        }
      ]
    },
    {
      "name": "Object_2",
      "primitives": [
        {
          "attributes": {
            "NORMAL": 9,
            "POSITION": 8,
            "TEXCOORD_0": 10
          },
          "indices": 11,
          "material": 2,
          "mode": 4
        }
      ]
    },
    {
      "name": "Object_3",
      "primitives": [
        {
          "attributes": {
            "NORMAL": 13,
            "POSITION": 12,
            "TEXCOORD_0": 14,
            "TEXCOORD_1": 15
          },
          "indices": 16,
          "material": 3,
          "mode": 4
        }
      ]
    }
  ],
  "nodes": [
    {
      "children": [
        1
      ],
      "matrix": [
        1.0,
        0.0,
        0.0,
        0.0,
        0.0,
        2.220446049250313e-16,
        -1.0,
        0.0,
        0.0,
        1.0,
        2.220446049250313e-16,
        0.0,
        0.0,
        0.0,
        0.0,
        1.0
      ],
      "name": "Sketchfab_model"
    },
    {
      "children": [
        2
      ],
      "name": "root"
    },
    {
      "children": [
        3,
        5,
        7,
        9
      ],
      "matrix": [
        1.0,
        0.0,
        0.0,
        0.0,
        0.0,
        2.220446049250313e-16,
        1.0,
        0.0,
        0.0,
        -1.0,
        2.220446049250313e-16,
        0.0,
        0.0,
        0.0,
        0.0,
        1.0
      ],
      "name": "GLTF_SceneRootNode"
    },
    {
      "children": [
        4
      ],
      "matrix": [
        1.0,
        0.0,
        0.0,
        0.0,
        0.0,
        -1.685873969314855e-07,
        0.9999999999999858,
        0.0,
        0.0,
        -0.9999999999999858,
        -1.685873969314855e-07,
        0.0,
        0.0,
        0.0,
        0.0,
        1.0
      ],
      "name": "hjulaxel_2"
    },
    {
      "mesh": 0,
      "name": "Object_4"
    },
    {
      "children": [
        6
      ],
      "matrix": [
        1.0,
        0.0,
        0.0,
        0.0,
        0.0,
        -1.685873969314855e-07,
        0.9999999999999858,
        0.0,
        0.0,
        -0.9999999999999858,
        -1.685873969314855e-07,
        0.0,
        0.0,
        0.0,
        0.0,
        1.0
      ],
      "name": "hjul_3"
    },
    {
      "mesh": 1,
      "name": "Object_6"
    },
    {
      "children": [
        8
      ],
      "matrix": [
        1.0,
        0.0,
        0.0,
        0.0,
        0.0,
        -1.685873969314855e-07,
        0.9999999999999858,
        0.0,
        0.0,
        -0.9999999999999858,
        -1.685873969314855e-07,
        0.0,
        0.0,
        0.0,
        0.0,
        1.0
      ],
      "name": "huvud_4"
    },
    {
      "mesh": 2,
      "name": "Object_8"
    },
    {
      "children": [
        10
      ],
      "matrix": [
        1.0,
        0.0,
        0.0,
        0.0,
        0.0,
        -1.685873969314855e-07,
        0.9999999999999858,
        0.0,
        0.0,
        -0.9999999999999858,
        -1.685873969314855e-07,
        0.0,
        0.0,
        0.0,
        0.0,
        1.0
      ],
      "name": "kropp_5"
    },
    {
      "mesh": 3,
      "name": "Object_10"
    }
  ],
  "samplers": [
    {
      "magFilter": 9729,
      "minFilter": 9987,
      "wrapS": 10497,
      "wrapT": 10497
    }
  ],
  "scene": 0,
  "scenes": [
    {
      "name": "Sketchfab_Scene",
      "nodes": [
        0
      ]
    }
  ],
  "textures": [
    {
      "sampler": 0,
      "source": 0
    },
    {
      "sampler": 0,
      "source": 1
    }
  ]
}
